<svg version="1.2" xmlns="http://www.w3.org/2000/svg" viewBox="0 0 24 24" width="24" height="24"><style>.a{fill:#fff}</style><path fill-rule="evenodd" class="a" d="m24 23q0 0.4-0.3 0.7-0.3 0.3-0.7 0.3-0.4 0-0.7-0.3l-6-6c-4.1 3.4-10.2 3-13.7-1-3.6-4-3.5-10 0.3-13.8 3.8-3.8 9.8-3.9 13.8-0.3 4 3.5 4.4 9.6 1 13.7l6 6q0.3 0.3 0.3 0.7zm-10.9-5.6q1.4-0.6 2.6-1.7 1.1-1.2 1.7-2.6 0.6-1.5 0.6-3.1c0-3.2-1.9-6.2-4.9-7.4-3-1.2-6.5-0.5-8.8 1.7-2.2 2.3-2.9 5.8-1.7 8.8 1.2 3 4.2 4.9 7.4 4.9q1.6 0 3.1-0.6z"/></svg>