<svg version="1.2" xmlns="http://www.w3.org/2000/svg" viewBox="0 0 24 24" width="24" height="24"><style>.a{fill:#fff}</style><path fill-rule="evenodd" class="a" d="m23.1 4.6q0.1 0.3 0.2 0.6 0.1 0.4 0.1 0.7 0 0.3 0 0.6l-0.8 4.4q-0.2 0.9-0.6 1.6-0.5 0.8-1.1 1.3-0.7 0.6-1.5 0.9-0.9 0.3-1.7 0.3h-12q0.2 0.4 0.5 0.8 0.3 0.4 0.6 0.6 0.4 0.3 0.9 0.5 0.4 0.1 0.9 0.1h10.4q0.4 0 0.7 0.3 0.3 0.3 0.3 0.7 0 0.4-0.3 0.7-0.3 0.3-0.7 0.3h-10.4q-1 0-1.8-0.3-0.9-0.4-1.6-1-0.7-0.6-1.1-1.4-0.4-0.8-0.5-1.7l-1.4-11.7q0-0.2-0.1-0.4-0.1-0.1-0.2-0.2-0.2-0.2-0.3-0.2-0.2-0.1-0.4-0.1h-0.2q-0.4 0-0.7-0.3-0.3-0.3-0.3-0.7 0-0.4 0.3-0.7 0.3-0.3 0.7-0.3h0.2q0.6 0 1.1 0.2 0.5 0.2 0.9 0.6 0.4 0.3 0.7 0.8 0.2 0.5 0.3 1v0.4h16.2q0.3 0 0.7 0.1 0.3 0 0.6 0.2 0.3 0.1 0.5 0.3 0.3 0.2 0.5 0.5 0.2 0.2 0.4 0.5zm-1.7 1.1q-0.1-0.2-0.2-0.3-0.2-0.2-0.4-0.3-0.2-0.1-0.4-0.1h-15.9l0.9 8h12.3q0.5 0 1-0.2 0.5-0.2 0.9-0.5 0.4-0.3 0.7-0.8 0.2-0.4 0.3-1l0.8-4.3q0-0.2 0-0.5z"/><path class="a" d="m7 24c-1.1 0-2-0.9-2-2 0-1.1 0.9-2 2-2 1.1 0 2 0.9 2 2 0 1.1-0.9 2-2 2z"/><path class="a" d="m17 24c-1.1 0-2-0.9-2-2 0-1.1 0.9-2 2-2 1.1 0 2 0.9 2 2 0 1.1-0.9 2-2 2z"/></svg>