<svg version="1.2" xmlns="http://www.w3.org/2000/svg" viewBox="0 0 24 24" width="24" height="24"><style>.a{fill:#fff}</style><path class="a" d="m21 24h-2v-5q0-0.6-0.2-1.2-0.3-0.5-0.7-0.9-0.4-0.4-0.9-0.7-0.6-0.2-1.2-0.2h-8q-0.6 0-1.2 0.2-0.5 0.3-0.9 0.7-0.4 0.4-0.7 0.9-0.2 0.6-0.2 1.2v5h-2v-5q0-1 0.4-1.9 0.4-0.9 1.1-1.6 0.7-0.7 1.6-1.1 0.9-0.4 1.9-0.4h8q1 0 1.9 0.4 0.9 0.4 1.6 1.1 0.7 0.7 1.1 1.6 0.4 0.9 0.4 1.9z"/><path fill-rule="evenodd" class="a" d="m12 12c-2.4 0-4.6-1.5-5.5-3.7-1-2.2-0.5-4.8 1.3-6.5 1.7-1.8 4.3-2.3 6.5-1.3 2.2 0.9 3.7 3.1 3.7 5.5q0 1.2-0.5 2.3-0.4 1.1-1.3 1.9-0.8 0.9-1.9 1.3-1.1 0.5-2.3 0.5zm0-10c-1.6 0-3.1 1-3.7 2.5-0.6 1.5-0.3 3.2 0.9 4.3 1.1 1.2 2.8 1.5 4.3 0.9 1.5-0.6 2.5-2.1 2.5-3.7q0-0.8-0.3-1.5-0.3-0.8-0.9-1.3-0.5-0.6-1.3-0.9-0.7-0.3-1.5-0.3z"/></svg>